<svg width="20" height="19" viewBox="0 0 20 19" fill="none" xmlns="http://www.w3.org/2000/svg">
    <path fill-rule="evenodd" clip-rule="evenodd"
          d="M6.20002 1.89999C5.94807 1.89999 5.70643 2.00008 5.52827 2.17824C5.35011 2.3564 5.25002 2.59804 5.25002 2.84999V3.79999H4.30002C3.79611 3.79999 3.31284 4.00017 2.95652 4.35649C2.6002 4.71281 2.40002 5.19608 2.40002 5.69999V15.2C2.40002 15.7039 2.6002 16.1872 2.95652 16.5435C3.31284 16.8998 3.79611 17.1 4.30002 17.1H15.7C16.2039 17.1 16.6872 16.8998 17.0435 16.5435C17.3998 16.1872 17.6 15.7039 17.6 15.2V5.69999C17.6 5.19608 17.3998 4.71281 17.0435 4.35649C16.6872 4.00017 16.2039 3.79999 15.7 3.79999H14.75V2.84999C14.75 2.59804 14.6499 2.3564 14.4718 2.17824C14.2936 2.00008 14.052 1.89999 13.8 1.89999C13.5481 1.89999 13.3064 2.00008 13.1283 2.17824C12.9501 2.3564 12.85 2.59804 12.85 2.84999V3.79999H7.15002V2.84999C7.15002 2.59804 7.04994 2.3564 6.87178 2.17824C6.69362 2.00008 6.45198 1.89999 6.20002 1.89999ZM6.20002 6.64999C5.94807 6.64999 5.70643 6.75008 5.52827 6.92824C5.35011 7.1064 5.25002 7.34804 5.25002 7.59999C5.25002 7.85195 5.35011 8.09359 5.52827 8.27175C5.70643 8.4499 5.94807 8.54999 6.20002 8.54999H13.8C14.052 8.54999 14.2936 8.4499 14.4718 8.27175C14.6499 8.09359 14.75 7.85195 14.75 7.59999C14.75 7.34804 14.6499 7.1064 14.4718 6.92824C14.2936 6.75008 14.052 6.64999 13.8 6.64999H6.20002Z"
          fill="#6B7280"/>
</svg>
