<svg width="24" height="24" viewBox="0 0 24 24" fill="none" xmlns="http://www.w3.org/2000/svg">
    <path d="M17 11V9C17 8.46957 16.7893 7.96086 16.4142 7.58579C16.0391 7.21071 15.5304 7 15 7H5C4.46957 7 3.96086 7.21071 3.58579 7.58579C3.21071 7.96086 3 8.46957 3 9V15C3 15.5304 3.21071 16.0391 3.58579 16.4142C3.96086 16.7893 4.46957 17 5 17H7M9 21H19C19.5304 21 20.0391 20.7893 20.4142 20.4142C20.7893 20.0391 21 19.5304 21 19V13C21 12.4696 20.7893 11.9609 20.4142 11.5858C20.0391 11.2107 19.5304 11 19 11H9C8.46957 11 7.96086 11.2107 7.58579 11.5858C7.21071 11.9609 7 12.4696 7 13V19C7 19.5304 7.21071 20.0391 7.58579 20.4142C7.96086 20.7893 8.46957 21 9 21ZM16 16C16 16.5304 15.7893 17.0391 15.4142 17.4142C15.0391 17.7893 14.5304 18 14 18C13.4696 18 12.9609 17.7893 12.5858 17.4142C12.2107 17.0391 12 16.5304 12 16C12 15.4696 12.2107 14.9609 12.5858 14.5858C12.9609 14.2107 13.4696 14 14 14C14.5304 14 15.0391 14.2107 15.4142 14.5858C15.7893 14.9609 16 15.4696 16 16Z"
          stroke="currentColor" stroke-width="2" stroke-linecap="round" stroke-linejoin="round"/>
    <path d="M20.5236 2V5.88825" stroke="currentColor" stroke-width="2" stroke-linecap="round"/>
    <path d="M18.4931 3.94413L22.4677 3.94413" stroke="currentColor" stroke-width="2" stroke-linecap="round"/>
</svg>
