<svg viewBox="0 0 21 21" fill="none" xmlns="http://www.w3.org/2000/svg">
    <path d="M10.5001 8.83333V13.8333M10.5001 13.8333L8.00008 11.3333M10.5001 13.8333L13.0001 11.3333M14.6667 18H6.33341C5.89139 18 5.46746 17.8244 5.1549 17.5118C4.84234 17.1993 4.66675 16.7754 4.66675 16.3333V4.66667C4.66675 4.22464 4.84234 3.80072 5.1549 3.48816C5.46746 3.17559 5.89139 3 6.33341 3H10.9884C11.2094 3.00005 11.4213 3.08788 11.5776 3.24417L16.0893 7.75583C16.2455 7.91208 16.3334 8.124 16.3334 8.345V16.3333C16.3334 16.7754 16.1578 17.1993 15.8453 17.5118C15.5327 17.8244 15.1088 18 14.6667 18Z"
          stroke-width="2" stroke-linecap="round" stroke-linejoin="round" stroke="currentColor"/>
</svg>
