<svg viewBox="0 0 16 17" fill="none" xmlns="http://www.w3.org/2000/svg">
    <path fill-rule="evenodd" clip-rule="evenodd" stroke="none"
          d="M2.40002 14.1C2.40002 13.8878 2.48431 13.6843 2.63434 13.5343C2.78437 13.3843 2.98785 13.3 3.20002 13.3H12.8C13.0122 13.3 13.2157 13.3843 13.3657 13.5343C13.5157 13.6843 13.6 13.8878 13.6 14.1C13.6 14.3122 13.5157 14.5157 13.3657 14.6657C13.2157 14.8157 13.0122 14.9 12.8 14.9H3.20002C2.98785 14.9 2.78437 14.8157 2.63434 14.6657C2.48431 14.5157 2.40002 14.3122 2.40002 14.1ZM5.03442 7.93441C5.18445 7.78443 5.38789 7.70018 5.60002 7.70018C5.81216 7.70018 6.0156 7.78443 6.16562 7.93441L7.20002 8.96881V2.90001C7.20002 2.68783 7.28431 2.48435 7.43434 2.33432C7.58437 2.18429 7.78785 2.10001 8.00002 2.10001C8.2122 2.10001 8.41568 2.18429 8.56571 2.33432C8.71574 2.48435 8.80002 2.68783 8.80002 2.90001V8.96881L9.83443 7.93441C9.90822 7.858 9.9965 7.79705 10.0941 7.75512C10.1917 7.7132 10.2967 7.69113 10.4029 7.69021C10.5091 7.68928 10.6145 7.70952 10.7128 7.74975C10.8111 7.78997 10.9004 7.84938 10.9755 7.92449C11.0507 7.9996 11.1101 8.08893 11.1503 8.18724C11.1905 8.28556 11.2107 8.3909 11.2098 8.49713C11.2089 8.60335 11.1868 8.70833 11.1449 8.80593C11.103 8.90353 11.042 8.99181 10.9656 9.06561L8.56562 11.4656C8.4156 11.6156 8.21216 11.6998 8.00002 11.6998C7.78789 11.6998 7.58445 11.6156 7.43442 11.4656L5.03442 9.06561C4.88445 8.91558 4.8002 8.71214 4.8002 8.50001C4.8002 8.28787 4.88445 8.08443 5.03442 7.93441Z"
          fill="currentColor"/>
</svg>
