<svg viewBox="0 0 40 40" fill="none" xmlns="http://www.w3.org/2000/svg">
    <path fill-rule="evenodd" clip-rule="evenodd"
          d="M37.5 2.5C35 0 30 0 20 0C10 0 5 0 2.5 2.5C0 5 0 10 0 20C0 30 0 35 2.5 37.5C5 40 10 40 20 40C30 40 35 40 37.5 37.5C40 35 40 30 40 20C40 10 40 5 37.5 2.5ZM5.6 12C5.6 11.1163 6.31634 10.4 7.2 10.4H20L18.5823 14.653C18.4734 14.9797 18.1677 15.2 17.8234 15.2H11.2V19.2H17.064L15.9179 22.6521C15.8093 22.9792 15.5034 23.2 15.1587 23.2H11.2V29.6H7.2C6.31634 29.6 5.6 28.8837 5.6 28V12ZM26.8468 10.4H22.4L28.8 29.6H33.2901C33.376 29.6 33.4615 29.5861 33.543 29.5589C33.9622 29.4192 34.1887 28.9662 34.049 28.547L28.3647 11.494C28.1469 10.8407 27.5355 10.4 26.8468 10.4ZM21.6 12.8L16 29.6H20.2234C20.5677 29.6 20.8734 29.3797 20.9823 29.053L24 20L21.6 12.8Z"
          fill="#AE001A"/>
</svg>
