<svg viewBox="0 0 66 66" fill="none" xmlns="http://www.w3.org/2000/svg">
    <path d="M25.8889 40.1111L33 33M33 33L40.1111 25.8889M33 33L25.8889 25.8889M33 33L40.1111 40.1111M65 33C65 37.2023 64.1723 41.3635 62.5641 45.2459C60.956 49.1283 58.5989 52.6559 55.6274 55.6274C52.6559 58.5989 49.1283 60.956 45.2459 62.5641C41.3635 64.1723 37.2023 65 33 65C28.7977 65 24.6365 64.1723 20.7541 62.5641C16.8717 60.956 13.3441 58.5989 10.3726 55.6274C7.40111 52.6559 5.04401 49.1283 3.43585 45.2459C1.8277 41.3635 1 37.2023 1 33C1 24.5131 4.37142 16.3737 10.3726 10.3726C16.3737 4.37142 24.5131 1 33 1C41.4869 1 49.6263 4.37142 55.6274 10.3726C61.6286 16.3737 65 24.5131 65 33Z"
          stroke="currentColor" stroke-width="2" stroke-linecap="round" stroke-linejoin="round"/>
</svg>
